<svg width="200" height="200" viewBox="0 0 200 200" fill="none" xmlns="http://www.w3.org/2000/svg">
<path d="M94.7615 55.363C92.793 38.4937 90.7145 20.6822 90.7145 0H109.285C109.285 20.4499 107.217 38.2387 105.251 55.127C103.649 68.89 102.118 82.055 101.833 95.575C111.158 85.8485 119.315 75.535 127.86 64.7315C138.396 51.4115 149.521 37.3473 164.145 22.7232L177.277 35.8552C162.816 50.3155 148.773 61.4305 135.442 71.983L135.43 71.9925C124.57 80.589 114.183 88.812 104.425 98.167C117.895 97.8825 130.956 96.3585 144.636 94.762C161.506 92.793 179.318 90.7145 200 90.7145V109.285C179.551 109.285 161.762 107.216 144.874 105.251L144.862 105.25C131.102 103.649 117.941 102.118 104.425 101.833C114.145 111.151 124.453 119.305 135.249 127.844L135.267 127.858C148.587 138.395 162.652 149.519 177.277 164.145L164.145 177.277C149.684 162.817 138.57 148.775 128.019 135.445L127.994 135.41L127.973 135.383C119.388 124.54 111.174 114.169 101.833 104.425C102.118 117.945 103.649 131.11 105.251 144.873C107.217 161.762 109.285 179.55 109.285 200H90.7145C90.7145 179.318 92.793 161.507 94.7615 144.637L94.7655 144.609C96.36 130.938 97.8825 117.886 98.167 104.425C88.8255 114.169 80.6125 124.54 72.027 135.383L72.006 135.41L71.981 135.445C61.43 148.775 50.3155 162.817 35.8552 177.277L22.7232 164.145C37.3479 149.519 51.413 138.395 64.7335 127.858L64.7505 127.844C75.547 119.305 85.855 111.151 95.575 101.833C82.055 102.118 68.8895 103.65 55.1255 105.251C38.238 107.216 20.4492 109.285 0 109.285V90.7145C20.6822 90.7145 38.4947 92.793 55.364 94.762C69.0445 96.3585 82.105 97.8825 95.575 98.167C85.8135 88.8085 75.4215 80.583 64.558 71.983C51.2265 61.4305 37.1833 50.3155 22.7232 35.8552L35.8552 22.7232C50.4785 37.3473 61.6045 51.4115 72.14 64.7315C80.685 75.5345 88.842 85.848 98.167 95.574C97.8825 82.1135 96.36 69.0615 94.7655 55.3905L94.7615 55.363Z" fill="white"/>
</svg>
